#!OML:ASF F:\VICON\USERDATA\INSTALL\rory3\rory3.ASF
:FULLY-SPECIFIED
:DEGREES
81
root -0.23067491915454902 17.789320341719435 36.809242216780206 -1.7689774534162184 -5.767914879092408 -7.859229038521111
lfemur -26.997811260486237 2.2734725365015804 -11.069080082601083
ltibia 31.029617325989715
lfoot -4.042866835097454 -1.731140923091307
ltoes -4.528597866729984
rfemur -0.33842579697147634 6.163143525103566 32.55878109224513
rtibia 31.99672378409932
rfoot -6.9760321982893885 -4.556264423071567
rtoes 2.9780289316004653
lowerback 9.394353526937948 1.8408533175311126 5.1309058346283365
upperback 0.4226621440156699 2.948443687257462 2.19200585603578
thorax -4.810674281901162 1.327035496233 -0.7830040811311246
lowerneck -16.89181757561896 -2.8166263953988167 -2.234949191698001
upperneck 20.107857584853708 -3.5123657027897393 1.6034694545214794
head 9.18649094772158 -1.7134796249934843 0.407140665337134
lclavicle -1.9523119754202353e-15 9.076245054291006e-16
lhumerus -35.19894859072926 1.7934447937173443 84.40358107563273
lradius 22.442645368514945
lwrist 3.2097521771338853
lhand -27.198979950094945 23.298154911861197
lfingers 7.12502
lthumb -0.30190291014305554 54.08080866084804
rclavicle -1.9542094016606023e-15 9.058769952819913e-16
rhumerus -23.9968431706356 -10.273606329359485 -82.07776425788089
rradius 25.163208244986816
rwrist 4.210414282203707
rhand -17.860895557192798 22.546054859243988
rfingers 7.12502
rthumb 8.433664051676764 -7.184987503588422
82
root -0.20106113021607935 17.742844829921207 37.501571242274196 -1.222492708981632 -6.552281785268287 -8.126985398602656
lfemur -27.538108175032587 -0.012202391656747302 -9.913273450081585
ltibia 26.69708605609839
lfoot -3.6766753960824574 -1.495115745809804
ltoes -4.760389853517603
rfemur 1.40402694434062 6.192783085804695 32.53871861919382
rtibia 31.498090850153194
rfoot -6.811512812281365 -4.7114612128828925
rtoes 3.055263465592532
lowerback 9.329960872009233 1.97503788968926 5.272335994536196
upperback 0.36496617419707567 3.1910395468836206 2.137563925403074
thorax -4.8016709404641436 1.4159237163412235 -0.9293914317212909
lowerneck -16.884759301994496 -2.812715433830812 -2.2142900223685746
upperneck 20.11840486725739 -3.491670015070886 1.597048735889663
head 9.184395966343892 -1.7094821308514114 0.4026639931737839
lclavicle -1.9523119754202353e-15 9.076245054291008e-16
lhumerus -35.944416942889546 3.0155439320910657 83.91281534204043
lradius 22.208256539648474
lwrist 3.025632781181603
lhand -27.30560701842676 23.018923694651964
lfingers 7.12502
lthumb -0.3397397635132678 53.9754579616099
rclavicle -1.9542094016606027e-15 9.058769952819911e-16
rhumerus -23.52520815955141 -10.008446435588409 -82.07141527782413
rradius 25.356548950514473
rwrist 3.977436241052827
rhand -17.881473658277287 22.514033284661682
rfingers 7.12502
rthumb 8.457003619396291 -7.124064435724711
83
root -0.1654964656866636 17.69210137507919 38.119395811631406 -0.8666042097848063 -7.167585147136871 -8.183120975817879
lfemur -27.038383355018844 -3.6452616668526643 -8.177801688798876
ltibia 25.42037722038661
lfoot -3.636731139412072 -1.731938193219679
ltoes -4.993165848580197
rfemur 3.063512007660318 6.175553591530885 32.38487517597624
rtibia 31.746080584758484
rfoot -6.924605953911833 -5.022496695821603
rtoes 3.108232027759006
lowerback 9.259998190502564 2.0418060977489865 5.17802100004833
upperback 0.3253951097046711 3.476638699245739 2.1279439505440374
thorax -4.790286327537023 1.479054363338394 -0.9618856659996077
lowerneck -16.889794193925514 -2.804632984581236 -2.1873385945823105
upperneck 20.102400182884647 -3.4865961159039003 1.567048325424654
head 9.180994630081805 -1.7070556522073845 0.39709740503021396
lclavicle -1.952311975420236e-15 9.076245054290998e-16
lhumerus -36.43300907001744 4.333468750285189 83.35779838911706
lradius 22.08808641580424
lwrist 2.961336732088602
lhand -27.18452291676483 23.315700016816056
lfingers 7.12502
lthumb -0.31782133224132875 54.0350151794602
rclavicle -1.9542094016606027e-15 9.058769952819913e-16
rhumerus -23.191330298561912 -9.960530652678061 -81.95537280604077
rradius 25.510867052985628
rwrist 3.9184834940289313
rhand -17.89635249535715 22.48517448886253
rfingers 7.12502
rthumb 8.474209611917361 -7.072274933952443
84
root -0.1228336037368099 17.645451353166035 38.7412427370855 -0.8157509066795157 -7.475622829394691 -7.981096521497845
lfemur -25.599638809792502 -7.252811005892946 -6.768530861537899
ltibia 26.6269355399653
lfoot -3.291949867174393 -1.6075423619453717
ltoes -4.81896495459109
rfemur 4.614559154455133 6.240741934654478 32.188366424336735
rtibia 32.77190783624406
rfoot -7.442461319989865 -5.42519515326086
rtoes 2.874043350811764
lowerback 9.243339961442889 2.108963211562149 5.030426963484573
upperback 0.28617074873951376 3.645166195860199 2.0752459801264633
thorax -4.791038060066768 1.498666991473272 -0.9981528537901917
lowerneck -16.871436950141494 -2.7931233391764736 -2.1405723521026534
upperneck 20.11639596913 -3.473561084866654 1.5762022711125
head 9.177592108037286 -1.7046334468272843 0.3903375511904348
lclavicle -1.952311975420236e-15 9.076245054290998e-16
lhumerus -36.974541744231686 5.4257371558783065 82.71747602965888
lradius 22.09524658306512
lwrist 2.975600933870237
lhand -27.34128222104755 22.933951602250403
lfingers 7.12502
lthumb -0.39798255882064903 53.86149649926114
rclavicle -1.9542094016606027e-15 9.058769952819911e-16
rhumerus -23.29966698295889 -10.51104218808743 -81.89962827163356
rradius 25.589833593066917
rwrist 3.927326350817332
rhand -17.90042655214382 22.47644854519236
rfingers 7.12502
rthumb 8.491814861622592 -7.026143500431647
85
root -0.07536263506468144 17.614279574919692 39.29838099872375 -1.105751869850256 -7.452504922743053 -7.562334226078143
lfemur -24.75170637519335 -6.975190578899918 -7.813597153881634
ltibia 29.468726767313427
lfoot -3.7679590767085225 -2.1364216980629154
ltoes -4.77584479325471
rfemur 6.041641455071094 6.2085251194343885 31.948119436259194
rtibia 34.490520582948655
rfoot -7.79701007683231 -5.703255278818787
rtoes 2.713595998607224
lowerback 9.261486941867071 2.1365192079631266 4.715381957870611
upperback 0.2699628097492354 3.8026350371260595 2.0248159600958195
thorax -4.795625707536391 1.5070845182110135 -0.9612237911377018
lowerneck -16.87210755538029 -2.7987816704095336 -2.127920220888668
upperneck 20.121779532596097 -3.4629802787599133 1.5628234726048975
head 9.155482303581225 -1.7118343582249342 0.37364552851876554
lclavicle -1.952311975420236e-15 9.076245054290998e-16
lhumerus -37.25301455839056 6.6259561933715085 82.13431032980499
lradius 22.22249590802059
lwrist 2.8528492317909366
lhand -27.232577188609906 23.202442484917984
lfingers 7.12502
lthumb -0.3475324167517257 53.98469792914314
rclavicle -1.9542094016606027e-15 9.058769952819913e-16
rhumerus -23.6211760970782 -11.237895149906322 -81.74627834887089
rradius 25.624530418363165
rwrist 4.015577508297209
rhand -17.839506327426328 22.597021199587896
rfingers 7.12502
rthumb 8.497789025521254 -7.020913704478591
